<?xml version="1.0" standalone="no"?>
<!DOCTYPE svg PUBLIC "-//W3C//DTD SVG 20010904//EN"
 "http://www.w3.org/TR/2001/REC-SVG-20010904/DTD/svg10.dtd">
<svg version="1.0" xmlns="http://www.w3.org/2000/svg"
 width="512.000000pt" height="512.000000pt" viewBox="0 0 512.000000 512.000000"
 preserveAspectRatio="xMidYMid meet">

<g transform="translate(0.000000,512.000000) scale(0.100000,-0.100000)"
fill="#000000" stroke="none">
<path d="M881 4753 c-16 -16 -221 -259 -455 -541 -371 -446 -426 -516 -426
-545 1 -27 194 -285 1253 -1672 927 -1214 1259 -1642 1280 -1649 17 -6 37 -6
55 0 20 7 350 432 1279 1649 1057 1385 1252 1645 1253 1672 0 29 -54 98 -426
545 -234 282 -439 525 -455 541 l-29 27 -1650 0 -1650 0 -29 -27z m1074 -543
c-220 -220 -402 -396 -406 -392 -8 9 -459 783 -459 788 0 2 285 4 632 4 l633
0 -400 -400z m2075 396 c0 -5 -451 -779 -459 -788 -4 -4 -186 172 -406 392
l-400 400 633 0 c347 0 632 -2 632 -4z m-1060 -441 l405 -405 -815 0 -815 0
405 405 c223 223 407 405 410 405 3 0 187 -182 410 -405z m-1811 -19 c122
-208 221 -380 221 -382 0 -2 -247 -4 -550 -4 -302 0 -550 2 -550 5 0 15 644
775 651 768 4 -4 107 -178 228 -387z m3360 9 c177 -212 321 -387 321 -390 0
-3 -247 -5 -550 -5 -302 0 -550 2 -550 4 0 2 84 147 186 322 102 176 204 349
226 387 21 37 41 67 43 67 2 0 148 -173 324 -385z m-2694 -1683 c192 -609 384
-1217 426 -1351 43 -134 72 -238 65 -230 -22 23 -2046 2679 -2046 2684 0 3
271 5 603 5 l602 0 350 -1108z m1635 1101 c1 -17 -894 -2843 -900 -2843 -6 0
-901 2826 -900 2843 0 9 1800 9 1800 0z m1390 2 c0 -5 -2024 -2661 -2046
-2684 -7 -8 22 96 65 230 42 134 234 742 426 1351 l350 1108 603 0 c331 0 602
-2 602 -5z"/>
</g>
</svg>
